<?xml version="1.0" encoding="UTF-8" standalone="no"?>
<!DOCTYPE svg PUBLIC "-//W3C//DTD SVG 1.1//EN" "http://www.w3.org/Graphics/SVG/1.1/DTD/svg11.dtd">
<svg width="100%" height="100%" viewBox="0 0 447 126" version="1.1" xmlns="http://www.w3.org/2000/svg" xmlns:xlink="http://www.w3.org/1999/xlink" xml:space="preserve" xmlns:serif="http://www.serif.com/" style="fill-rule:evenodd;clip-rule:evenodd;stroke-linejoin:round;stroke-miterlimit:2;">
    <g transform="matrix(1,0,0,1,-634.814,-263.733)">
        <g transform="matrix(1.00636,0,0,1.00636,458.857,250.884)">
            <path d="M214.402,99.698L214.402,114.275C214.402,115.299 213.571,116.13 212.547,116.13L197.97,116.13C196.946,116.13 196.115,115.299 196.115,114.275L196.115,99.698C196.115,98.674 196.946,97.843 197.97,97.843L212.547,97.843C213.571,97.843 214.402,98.674 214.402,99.698Z" style="fill:rgb(0,117,194);"/>
        </g>
        <g transform="matrix(1.00636,0,0,1.00636,458.857,272.287)">
            <path d="M214.402,99.698L214.402,114.275C214.402,115.299 213.571,116.13 212.547,116.13L197.97,116.13C196.946,116.13 196.115,115.299 196.115,114.275L196.115,99.698C196.115,98.674 196.946,97.843 197.97,97.843L212.547,97.843C213.571,97.843 214.402,98.674 214.402,99.698Z" style="fill:rgb(188,213,239);"/>
        </g>
        <g transform="matrix(1.00636,0,0,1.00636,458.857,165.268)">
            <path d="M214.402,99.698L214.402,114.275C214.402,115.299 213.571,116.13 212.547,116.13L197.97,116.13C196.946,116.13 196.115,115.299 196.115,114.275L196.115,99.698C196.115,98.674 196.946,97.843 197.97,97.843L212.547,97.843C213.571,97.843 214.402,98.674 214.402,99.698Z" style="fill:rgb(39,170,227);"/>
        </g>
        <g transform="matrix(1.00636,0,0,1.00636,458.857,186.672)">
            <path d="M214.402,99.698L214.402,114.275C214.402,115.299 213.571,116.13 212.547,116.13L197.97,116.13C196.946,116.13 196.115,115.299 196.115,114.275L196.115,99.698C196.115,98.674 196.946,97.843 197.97,97.843L212.547,97.843C213.571,97.843 214.402,98.674 214.402,99.698Z" style="fill:rgb(39,181,242);"/>
        </g>
        <g transform="matrix(1.00636,0,0,1.00636,458.857,208.076)">
            <path d="M214.402,99.698L214.402,114.275C214.402,115.299 213.571,116.13 212.547,116.13L197.97,116.13C196.946,116.13 196.115,115.299 196.115,114.275L196.115,99.698C196.115,98.674 196.946,97.843 197.97,97.843L212.547,97.843C213.571,97.843 214.402,98.674 214.402,99.698Z" style="fill:rgb(210,235,253);"/>
        </g>
        <g transform="matrix(1.00636,0,0,1.00636,458.857,229.48)">
            <path d="M214.402,99.698L214.402,114.275C214.402,115.299 213.571,116.13 212.547,116.13L197.97,116.13C196.946,116.13 196.115,115.299 196.115,114.275L196.115,99.698C196.115,98.674 196.946,97.843 197.97,97.843L212.547,97.843C213.571,97.843 214.402,98.674 214.402,99.698Z" style="fill:rgb(11,160,223);"/>
        </g>
        <g transform="matrix(1.00636,0,0,1.00636,480.261,250.884)">
            <path d="M214.402,99.698L214.402,114.275C214.402,115.299 213.571,116.13 212.547,116.13L197.97,116.13C196.946,116.13 196.115,115.299 196.115,114.275L196.115,99.698C196.115,98.674 196.946,97.843 197.97,97.843L212.547,97.843C213.571,97.843 214.402,98.674 214.402,99.698Z" style="fill:rgb(40,167,227);"/>
        </g>
        <g transform="matrix(1.00636,0,0,1.00636,480.261,272.287)">
            <path d="M214.402,99.698L214.402,114.275C214.402,115.299 213.571,116.13 212.547,116.13L197.97,116.13C196.946,116.13 196.115,115.299 196.115,114.275L196.115,99.698C196.115,98.674 196.946,97.843 197.97,97.843L212.547,97.843C213.571,97.843 214.402,98.674 214.402,99.698Z" style="fill:rgb(4,163,234);"/>
        </g>
        <g transform="matrix(1.00636,0,0,1.00636,480.261,165.268)">
            <path d="M214.402,99.698L214.402,114.275C214.402,115.299 213.571,116.13 212.547,116.13L197.97,116.13C196.946,116.13 196.115,115.299 196.115,114.275L196.115,99.698C196.115,98.674 196.946,97.843 197.97,97.843L212.547,97.843C213.571,97.843 214.402,98.674 214.402,99.698Z" style="fill:rgb(95,191,231);"/>
        </g>
        <g transform="matrix(1.00636,0,0,1.00636,480.261,186.672)">
            <path d="M214.402,99.698L214.402,114.275C214.402,115.299 213.571,116.13 212.547,116.13L197.97,116.13C196.946,116.13 196.115,115.299 196.115,114.275L196.115,99.698C196.115,98.674 196.946,97.843 197.97,97.843L212.547,97.843C213.571,97.843 214.402,98.674 214.402,99.698Z" style="fill:rgb(0,108,186);"/>
        </g>
        <g transform="matrix(1.00636,0,0,1.00636,480.261,208.076)">
            <path d="M214.402,99.698L214.402,114.275C214.402,115.299 213.571,116.13 212.547,116.13L197.97,116.13C196.946,116.13 196.115,115.299 196.115,114.275L196.115,99.698C196.115,98.674 196.946,97.843 197.97,97.843L212.547,97.843C213.571,97.843 214.402,98.674 214.402,99.698Z" style="fill:rgb(42,168,232);"/>
        </g>
        <g transform="matrix(1.00636,0,0,1.00636,480.261,229.48)">
            <path d="M214.402,99.698L214.402,114.275C214.402,115.299 213.571,116.13 212.547,116.13L197.97,116.13C196.946,116.13 196.115,115.299 196.115,114.275L196.115,99.698C196.115,98.674 196.946,97.843 197.97,97.843L212.547,97.843C213.571,97.843 214.402,98.674 214.402,99.698Z" style="fill:rgb(124,204,246);"/>
        </g>
        <g transform="matrix(1.00636,0,0,1.00636,437.453,250.884)">
            <path d="M214.402,99.698L214.402,114.275C214.402,115.299 213.571,116.13 212.547,116.13L197.97,116.13C196.946,116.13 196.115,115.299 196.115,114.275L196.115,99.698C196.115,98.674 196.946,97.843 197.97,97.843L212.547,97.843C213.571,97.843 214.402,98.674 214.402,99.698Z" style="fill:rgb(2,170,234);"/>
        </g>
        <g transform="matrix(1.00636,0,0,1.00636,437.453,272.287)">
            <path d="M214.402,99.698L214.402,114.275C214.402,115.299 213.571,116.13 212.547,116.13L197.97,116.13C196.946,116.13 196.115,115.299 196.115,114.275L196.115,99.698C196.115,98.674 196.946,97.843 197.97,97.843L212.547,97.843C213.571,97.843 214.402,98.674 214.402,99.698Z" style="fill:rgb(105,204,243);"/>
        </g>
        <g transform="matrix(1.00636,0,0,1.00636,437.453,165.268)">
            <path d="M214.402,99.698L214.402,114.275C214.402,115.299 213.571,116.13 212.547,116.13L197.97,116.13C196.946,116.13 196.115,115.299 196.115,114.275L196.115,99.698C196.115,98.674 196.946,97.843 197.97,97.843L212.547,97.843C213.571,97.843 214.402,98.674 214.402,99.698Z" style="fill:rgb(85,194,239);"/>
        </g>
        <g transform="matrix(1.00636,0,0,1.00636,437.453,186.672)">
            <path d="M214.402,99.698L214.402,114.275C214.402,115.299 213.571,116.13 212.547,116.13L197.97,116.13C196.946,116.13 196.115,115.299 196.115,114.275L196.115,99.698C196.115,98.674 196.946,97.843 197.97,97.843L212.547,97.843C213.571,97.843 214.402,98.674 214.402,99.698Z" style="fill:rgb(131,210,242);"/>
        </g>
        <g transform="matrix(1.00636,0,0,1.00636,437.453,208.076)">
            <path d="M214.402,99.698L214.402,114.275C214.402,115.299 213.571,116.13 212.547,116.13L197.97,116.13C196.946,116.13 196.115,115.299 196.115,114.275L196.115,99.698C196.115,98.674 196.946,97.843 197.97,97.843L212.547,97.843C213.571,97.843 214.402,98.674 214.402,99.698Z" style="fill:rgb(102,170,225);"/>
        </g>
        <g transform="matrix(1.00636,0,0,1.00636,437.453,229.48)">
            <path d="M214.402,99.698L214.402,114.275C214.402,115.299 213.571,116.13 212.547,116.13L197.97,116.13C196.946,116.13 196.115,115.299 196.115,114.275L196.115,99.698C196.115,98.674 196.946,97.843 197.97,97.843L212.547,97.843C213.571,97.843 214.402,98.674 214.402,99.698Z" style="fill:rgb(229,246,254);"/>
        </g>
        <g transform="matrix(1.00636,0,0,1.00636,501.665,250.884)">
            <path d="M214.402,99.698L214.402,114.275C214.402,115.299 213.571,116.13 212.547,116.13L197.97,116.13C196.946,116.13 196.115,115.299 196.115,114.275L196.115,99.698C196.115,98.674 196.946,97.843 197.97,97.843L212.547,97.843C213.571,97.843 214.402,98.674 214.402,99.698Z" style="fill:rgb(4,106,181);"/>
        </g>
        <g transform="matrix(1.00636,0,0,1.00636,501.665,272.287)">
            <path d="M214.402,99.698L214.402,114.275C214.402,115.299 213.571,116.13 212.547,116.13L197.97,116.13C196.946,116.13 196.115,115.299 196.115,114.275L196.115,99.698C196.115,98.674 196.946,97.843 197.97,97.843L212.547,97.843C213.571,97.843 214.402,98.674 214.402,99.698Z" style="fill:rgb(32,183,234);"/>
        </g>
        <g transform="matrix(1.00636,0,0,1.00636,501.665,165.268)">
            <path d="M214.402,99.698L214.402,114.275C214.402,115.299 213.571,116.13 212.547,116.13L197.97,116.13C196.946,116.13 196.115,115.299 196.115,114.275L196.115,99.698C196.115,98.674 196.946,97.843 197.97,97.843L212.547,97.843C213.571,97.843 214.402,98.674 214.402,99.698Z" style="fill:rgb(133,207,241);"/>
        </g>
        <g transform="matrix(1.00636,0,0,1.00636,501.665,186.672)">
            <path d="M214.402,99.698L214.402,114.275C214.402,115.299 213.571,116.13 212.547,116.13L197.97,116.13C196.946,116.13 196.115,115.299 196.115,114.275L196.115,99.698C196.115,98.674 196.946,97.843 197.97,97.843L212.547,97.843C213.571,97.843 214.402,98.674 214.402,99.698Z" style="fill:rgb(102,200,242);"/>
        </g>
        <g transform="matrix(1.00636,0,0,1.00636,501.665,208.076)">
            <path d="M214.402,99.698L214.402,114.275C214.402,115.299 213.571,116.13 212.547,116.13L197.97,116.13C196.946,116.13 196.115,115.299 196.115,114.275L196.115,99.698C196.115,98.674 196.946,97.843 197.97,97.843L212.547,97.843C213.571,97.843 214.402,98.674 214.402,99.698Z" style="fill:rgb(123,205,246);"/>
        </g>
        <g transform="matrix(1.00636,0,0,1.00636,501.665,229.48)">
            <path d="M214.402,99.698L214.402,114.275C214.402,115.299 213.571,116.13 212.547,116.13L197.97,116.13C196.946,116.13 196.115,115.299 196.115,114.275L196.115,99.698C196.115,98.674 196.946,97.843 197.97,97.843L212.547,97.843C213.571,97.843 214.402,98.674 214.402,99.698Z" style="fill:rgb(102,171,221);"/>
        </g>
        <g transform="matrix(1.00636,0,0,1.00636,523.069,250.884)">
            <path d="M214.402,99.698L214.402,114.275C214.402,115.299 213.571,116.13 212.547,116.13L197.97,116.13C196.946,116.13 196.115,115.299 196.115,114.275L196.115,99.698C196.115,98.674 196.946,97.843 197.97,97.843L212.547,97.843C213.571,97.843 214.402,98.674 214.402,99.698Z" style="fill:rgb(124,205,244);"/>
        </g>
        <g transform="matrix(1.00636,0,0,1.00636,523.069,272.287)">
            <path d="M214.402,99.698L214.402,114.275C214.402,115.299 213.571,116.13 212.547,116.13L197.97,116.13C196.946,116.13 196.115,115.299 196.115,114.275L196.115,99.698C196.115,98.674 196.946,97.843 197.97,97.843L212.547,97.843C213.571,97.843 214.402,98.674 214.402,99.698Z" style="fill:rgb(106,203,248);"/>
        </g>
        <g transform="matrix(1.00636,0,0,1.00636,523.069,165.268)">
            <path d="M214.402,99.698L214.402,114.275C214.402,115.299 213.571,116.13 212.547,116.13L197.97,116.13C196.946,116.13 196.115,115.299 196.115,114.275L196.115,99.698C196.115,98.674 196.946,97.843 197.97,97.843L212.547,97.843C213.571,97.843 214.402,98.674 214.402,99.698Z" style="fill:rgb(3,118,192);"/>
        </g>
        <g transform="matrix(1.00636,0,0,1.00636,523.069,186.672)">
            <path d="M214.402,99.698L214.402,114.275C214.402,115.299 213.571,116.13 212.547,116.13L197.97,116.13C196.946,116.13 196.115,115.299 196.115,114.275L196.115,99.698C196.115,98.674 196.946,97.843 197.97,97.843L212.547,97.843C213.571,97.843 214.402,98.674 214.402,99.698Z" style="fill:rgb(11,112,190);"/>
        </g>
        <g transform="matrix(1.00636,0,0,1.00636,523.069,208.076)">
            <path d="M214.402,99.698L214.402,114.275C214.402,115.299 213.571,116.13 212.547,116.13L197.97,116.13C196.946,116.13 196.115,115.299 196.115,114.275L196.115,99.698C196.115,98.674 196.946,97.843 197.97,97.843L212.547,97.843C213.571,97.843 214.402,98.674 214.402,99.698Z" style="fill:rgb(0,160,233);"/>
        </g>
        <g transform="matrix(1.00636,0,0,1.00636,523.069,229.48)">
            <path d="M214.402,99.698L214.402,114.275C214.402,115.299 213.571,116.13 212.547,116.13L197.97,116.13C196.946,116.13 196.115,115.299 196.115,114.275L196.115,99.698C196.115,98.674 196.946,97.843 197.97,97.843L212.547,97.843C213.571,97.843 214.402,98.674 214.402,99.698Z" style="fill:rgb(186,228,250);"/>
        </g>
        <g transform="matrix(1.00636,0,0,1.00636,544.472,250.884)">
            <path d="M214.402,99.698L214.402,114.275C214.402,115.299 213.571,116.13 212.547,116.13L197.97,116.13C196.946,116.13 196.115,115.299 196.115,114.275L196.115,99.698C196.115,98.674 196.946,97.843 197.97,97.843L212.547,97.843C213.571,97.843 214.402,98.674 214.402,99.698Z" style="fill:rgb(44,166,225);"/>
        </g>
        <g transform="matrix(1.00636,0,0,1.00636,544.472,272.287)">
            <path d="M214.402,99.698L214.402,114.275C214.402,115.299 213.571,116.13 212.547,116.13L197.97,116.13C196.946,116.13 196.115,115.299 196.115,114.275L196.115,99.698C196.115,98.674 196.946,97.843 197.97,97.843L212.547,97.843C213.571,97.843 214.402,98.674 214.402,99.698Z" style="fill:rgb(108,201,235);"/>
        </g>
        <g transform="matrix(1.00636,0,0,1.00636,544.472,165.268)">
            <path d="M214.402,99.698L214.402,114.275C214.402,115.299 213.571,116.13 212.547,116.13L197.97,116.13C196.946,116.13 196.115,115.299 196.115,114.275L196.115,99.698C196.115,98.674 196.946,97.843 197.97,97.843L212.547,97.843C213.571,97.843 214.402,98.674 214.402,99.698Z" style="fill:rgb(101,173,224);"/>
        </g>
        <g transform="matrix(1.00636,0,0,1.00636,544.472,186.672)">
            <path d="M214.402,99.698L214.402,114.275C214.402,115.299 213.571,116.13 212.547,116.13L197.97,116.13C196.946,116.13 196.115,115.299 196.115,114.275L196.115,99.698C196.115,98.674 196.946,97.843 197.97,97.843L212.547,97.843C213.571,97.843 214.402,98.674 214.402,99.698Z" style="fill:rgb(187,210,246);"/>
        </g>
        <g transform="matrix(1.00636,0,0,1.00636,544.472,208.076)">
            <path d="M214.402,99.698L214.402,114.275C214.402,115.299 213.571,116.13 212.547,116.13L197.97,116.13C196.946,116.13 196.115,115.299 196.115,114.275L196.115,99.698C196.115,98.674 196.946,97.843 197.97,97.843L212.547,97.843C213.571,97.843 214.402,98.674 214.402,99.698Z" style="fill:rgb(228,247,254);"/>
        </g>
        <g transform="matrix(1.00636,0,0,1.00636,544.472,229.48)">
            <path d="M214.402,99.698L214.402,114.275C214.402,115.299 213.571,116.13 212.547,116.13L197.97,116.13C196.946,116.13 196.115,115.299 196.115,114.275L196.115,99.698C196.115,98.674 196.946,97.843 197.97,97.843L212.547,97.843C213.571,97.843 214.402,98.674 214.402,99.698Z" style="fill:rgb(123,205,246);"/>
        </g>
        <g transform="matrix(1.00636,0,0,1.00636,565.876,250.884)">
            <path d="M214.402,99.698L214.402,114.275C214.402,115.299 213.571,116.13 212.547,116.13L197.97,116.13C196.946,116.13 196.115,115.299 196.115,114.275L196.115,99.698C196.115,98.674 196.946,97.843 197.97,97.843L212.547,97.843C213.571,97.843 214.402,98.674 214.402,99.698Z" style="fill:rgb(105,203,243);"/>
        </g>
        <g transform="matrix(1.00636,0,0,1.00636,565.876,272.287)">
            <path d="M214.402,99.698L214.402,114.275C214.402,115.299 213.571,116.13 212.547,116.13L197.97,116.13C196.946,116.13 196.115,115.299 196.115,114.275L196.115,99.698C196.115,98.674 196.946,97.843 197.97,97.843L212.547,97.843C213.571,97.843 214.402,98.674 214.402,99.698Z" style="fill:rgb(15,113,183);"/>
        </g>
        <g transform="matrix(1.00636,0,0,1.00636,565.876,165.268)">
            <path d="M214.402,99.698L214.402,114.275C214.402,115.299 213.571,116.13 212.547,116.13L197.97,116.13C196.946,116.13 196.115,115.299 196.115,114.275L196.115,99.698C196.115,98.674 196.946,97.843 197.97,97.843L212.547,97.843C213.571,97.843 214.402,98.674 214.402,99.698Z" style="fill:rgb(30,183,236);"/>
        </g>
        <g transform="matrix(1.00636,0,0,1.00636,565.876,186.672)">
            <path d="M214.402,99.698L214.402,114.275C214.402,115.299 213.571,116.13 212.547,116.13L197.97,116.13C196.946,116.13 196.115,115.299 196.115,114.275L196.115,99.698C196.115,98.674 196.946,97.843 197.97,97.843L212.547,97.843C213.571,97.843 214.402,98.674 214.402,99.698Z" style="fill:rgb(40,170,224);"/>
        </g>
        <g transform="matrix(1.00636,0,0,1.00636,565.876,208.076)">
            <path d="M214.402,99.698L214.402,114.275C214.402,115.299 213.571,116.13 212.547,116.13L197.97,116.13C196.946,116.13 196.115,115.299 196.115,114.275L196.115,99.698C196.115,98.674 196.946,97.843 197.97,97.843L212.547,97.843C213.571,97.843 214.402,98.674 214.402,99.698Z" style="fill:rgb(3,104,183);"/>
        </g>
        <g transform="matrix(1.00636,0,0,1.00636,565.876,229.48)">
            <path d="M214.402,99.698L214.402,114.275C214.402,115.299 213.571,116.13 212.547,116.13L197.97,116.13C196.946,116.13 196.115,115.299 196.115,114.275L196.115,99.698C196.115,98.674 196.946,97.843 197.97,97.843L212.547,97.843C213.571,97.843 214.402,98.674 214.402,99.698Z" style="fill:rgb(87,193,241);"/>
        </g>
        <g transform="matrix(1.00636,0,0,1.00636,587.28,250.884)">
            <path d="M214.402,99.698L214.402,114.275C214.402,115.299 213.571,116.13 212.547,116.13L197.97,116.13C196.946,116.13 196.115,115.299 196.115,114.275L196.115,99.698C196.115,98.674 196.946,97.843 197.97,97.843L212.547,97.843C213.571,97.843 214.402,98.674 214.402,99.698Z" style="fill:rgb(133,209,243);"/>
        </g>
        <g transform="matrix(1.00636,0,0,1.00636,587.28,272.287)">
            <path d="M214.402,99.698L214.402,114.275C214.402,115.299 213.571,116.13 212.547,116.13L197.97,116.13C196.946,116.13 196.115,115.299 196.115,114.275L196.115,99.698C196.115,98.674 196.946,97.843 197.97,97.843L212.547,97.843C213.571,97.843 214.402,98.674 214.402,99.698Z" style="fill:rgb(27,181,241);"/>
        </g>
        <g transform="matrix(1.00636,0,0,1.00636,587.28,165.268)">
            <path d="M214.402,99.698L214.402,114.275C214.402,115.299 213.571,116.13 212.547,116.13L197.97,116.13C196.946,116.13 196.115,115.299 196.115,114.275L196.115,99.698C196.115,98.674 196.946,97.843 197.97,97.843L212.547,97.843C213.571,97.843 214.402,98.674 214.402,99.698Z" style="fill:rgb(229,246,255);"/>
        </g>
        <g transform="matrix(1.00636,0,0,1.00636,587.28,186.672)">
            <path d="M214.402,99.698L214.402,114.275C214.402,115.299 213.571,116.13 212.547,116.13L197.97,116.13C196.946,116.13 196.115,115.299 196.115,114.275L196.115,99.698C196.115,98.674 196.946,97.843 197.97,97.843L212.547,97.843C213.571,97.843 214.402,98.674 214.402,99.698Z" style="fill:rgb(132,208,246);"/>
        </g>
        <g transform="matrix(1.00636,0,0,1.00636,587.28,208.076)">
            <path d="M214.402,99.698L214.402,114.275C214.402,115.299 213.571,116.13 212.547,116.13L197.97,116.13C196.946,116.13 196.115,115.299 196.115,114.275L196.115,99.698C196.115,98.674 196.946,97.843 197.97,97.843L212.547,97.843C213.571,97.843 214.402,98.674 214.402,99.698Z" style="fill:rgb(89,188,239);"/>
        </g>
        <g transform="matrix(1.00636,0,0,1.00636,587.28,229.48)">
            <path d="M214.402,99.698L214.402,114.275C214.402,115.299 213.571,116.13 212.547,116.13L197.97,116.13C196.946,116.13 196.115,115.299 196.115,114.275L196.115,99.698C196.115,98.674 196.946,97.843 197.97,97.843L212.547,97.843C213.571,97.843 214.402,98.674 214.402,99.698Z" style="fill:rgb(7,159,231);"/>
        </g>
        <g transform="matrix(1.00636,0,0,1.00636,608.684,250.884)">
            <path d="M214.402,99.698L214.402,114.275C214.402,115.299 213.571,116.13 212.547,116.13L197.97,116.13C196.946,116.13 196.115,115.299 196.115,114.275L196.115,99.698C196.115,98.674 196.946,97.843 197.97,97.843L212.547,97.843C213.571,97.843 214.402,98.674 214.402,99.698Z" style="fill:rgb(118,204,242);"/>
        </g>
        <g transform="matrix(1.00636,0,0,1.00636,608.684,272.287)">
            <path d="M214.402,99.698L214.402,114.275C214.402,115.299 213.571,116.13 212.547,116.13L197.97,116.13C196.946,116.13 196.115,115.299 196.115,114.275L196.115,99.698C196.115,98.674 196.946,97.843 197.97,97.843L212.547,97.843C213.571,97.843 214.402,98.674 214.402,99.698Z" style="fill:rgb(42,167,223);"/>
        </g>
        <g transform="matrix(1.00636,0,0,1.00636,608.684,165.268)">
            <path d="M214.402,99.698L214.402,114.275C214.402,115.299 213.571,116.13 212.547,116.13L197.97,116.13C196.946,116.13 196.115,115.299 196.115,114.275L196.115,99.698C196.115,98.674 196.946,97.843 197.97,97.843L212.547,97.843C213.571,97.843 214.402,98.674 214.402,99.698Z" style="fill:rgb(2,111,191);"/>
        </g>
        <g transform="matrix(1.00636,0,0,1.00636,608.684,186.672)">
            <path d="M214.402,99.698L214.402,114.275C214.402,115.299 213.571,116.13 212.547,116.13L197.97,116.13C196.946,116.13 196.115,115.299 196.115,114.275L196.115,99.698C196.115,98.674 196.946,97.843 197.97,97.843L212.547,97.843C213.571,97.843 214.402,98.674 214.402,99.698Z" style="fill:rgb(120,205,243);"/>
        </g>
        <g transform="matrix(1.00636,0,0,1.00636,608.684,208.076)">
            <path d="M214.402,99.698L214.402,114.275C214.402,115.299 213.571,116.13 212.547,116.13L197.97,116.13C196.946,116.13 196.115,115.299 196.115,114.275L196.115,99.698C196.115,98.674 196.946,97.843 197.97,97.843L212.547,97.843C213.571,97.843 214.402,98.674 214.402,99.698Z" style="fill:rgb(36,169,227);"/>
        </g>
        <g transform="matrix(1.00636,0,0,1.00636,608.684,229.48)">
            <path d="M214.402,99.698L214.402,114.275C214.402,115.299 213.571,116.13 212.547,116.13L197.97,116.13C196.946,116.13 196.115,115.299 196.115,114.275L196.115,99.698C196.115,98.674 196.946,97.843 197.97,97.843L212.547,97.843C213.571,97.843 214.402,98.674 214.402,99.698Z" style="fill:rgb(5,119,190);"/>
        </g>
        <g transform="matrix(1.00636,0,0,1.00636,630.088,250.884)">
            <path d="M214.402,99.698L214.402,114.275C214.402,115.299 213.571,116.13 212.547,116.13L197.97,116.13C196.946,116.13 196.115,115.299 196.115,114.275L196.115,99.698C196.115,98.674 196.946,97.843 197.97,97.843L212.547,97.843C213.571,97.843 214.402,98.674 214.402,99.698Z" style="fill:rgb(189,228,249);"/>
        </g>
        <g transform="matrix(1.00636,0,0,1.00636,630.088,272.287)">
            <path d="M214.402,99.698L214.402,114.275C214.402,115.299 213.571,116.13 212.547,116.13L197.97,116.13C196.946,116.13 196.115,115.299 196.115,114.275L196.115,99.698C196.115,98.674 196.946,97.843 197.97,97.843L212.547,97.843C213.571,97.843 214.402,98.674 214.402,99.698Z" style="fill:rgb(121,206,244);"/>
        </g>
        <g transform="matrix(1.00636,0,0,1.00636,630.088,165.268)">
            <path d="M214.402,99.698L214.402,114.275C214.402,115.299 213.571,116.13 212.547,116.13L197.97,116.13C196.946,116.13 196.115,115.299 196.115,114.275L196.115,99.698C196.115,98.674 196.946,97.843 197.97,97.843L212.547,97.843C213.571,97.843 214.402,98.674 214.402,99.698Z" style="fill:rgb(1,170,227);"/>
        </g>
        <g transform="matrix(1.00636,0,0,1.00636,630.088,186.672)">
            <path d="M214.402,99.698L214.402,114.275C214.402,115.299 213.571,116.13 212.547,116.13L197.97,116.13C196.946,116.13 196.115,115.299 196.115,114.275L196.115,99.698C196.115,98.674 196.946,97.843 197.97,97.843L212.547,97.843C213.571,97.843 214.402,98.674 214.402,99.698Z" style="fill:rgb(37,169,227);"/>
        </g>
        <g transform="matrix(1.00636,0,0,1.00636,630.088,208.076)">
            <path d="M214.402,99.698L214.402,114.275C214.402,115.299 213.571,116.13 212.547,116.13L197.97,116.13C196.946,116.13 196.115,115.299 196.115,114.275L196.115,99.698C196.115,98.674 196.946,97.843 197.97,97.843L212.547,97.843C213.571,97.843 214.402,98.674 214.402,99.698Z" style="fill:rgb(213,235,255);"/>
        </g>
        <g transform="matrix(1.00636,0,0,1.00636,630.088,229.48)">
            <path d="M214.402,99.698L214.402,114.275C214.402,115.299 213.571,116.13 212.547,116.13L197.97,116.13C196.946,116.13 196.115,115.299 196.115,114.275L196.115,99.698C196.115,98.674 196.946,97.843 197.97,97.843L212.547,97.843C213.571,97.843 214.402,98.674 214.402,99.698Z" style="fill:rgb(4,105,183);"/>
        </g>
        <g transform="matrix(1.00636,0,0,1.00636,651.491,250.884)">
            <path d="M214.402,99.698L214.402,114.275C214.402,115.299 213.571,116.13 212.547,116.13L197.97,116.13C196.946,116.13 196.115,115.299 196.115,114.275L196.115,99.698C196.115,98.674 196.946,97.843 197.97,97.843L212.547,97.843C213.571,97.843 214.402,98.674 214.402,99.698Z" style="fill:rgb(105,203,245);"/>
        </g>
        <g transform="matrix(1.00636,0,0,1.00636,651.491,272.287)">
            <path d="M214.402,99.698L214.402,114.275C214.402,115.299 213.571,116.13 212.547,116.13L197.97,116.13C196.946,116.13 196.115,115.299 196.115,114.275L196.115,99.698C196.115,98.674 196.946,97.843 197.97,97.843L212.547,97.843C213.571,97.843 214.402,98.674 214.402,99.698Z" style="fill:rgb(134,208,244);"/>
        </g>
        <g transform="matrix(1.00636,0,0,1.00636,651.491,165.268)">
            <path d="M214.402,99.698L214.402,114.275C214.402,115.299 213.571,116.13 212.547,116.13L197.97,116.13C196.946,116.13 196.115,115.299 196.115,114.275L196.115,99.698C196.115,98.674 196.946,97.843 197.97,97.843L212.547,97.843C213.571,97.843 214.402,98.674 214.402,99.698Z" style="fill:rgb(102,200,244);"/>
        </g>
        <g transform="matrix(1.00636,0,0,1.00636,651.491,186.672)">
            <path d="M214.402,99.698L214.402,114.275C214.402,115.299 213.571,116.13 212.547,116.13L197.97,116.13C196.946,116.13 196.115,115.299 196.115,114.275L196.115,99.698C196.115,98.674 196.946,97.843 197.97,97.843L212.547,97.843C213.571,97.843 214.402,98.674 214.402,99.698Z" style="fill:rgb(120,206,250);"/>
        </g>
        <g transform="matrix(1.00636,0,0,1.00636,651.491,208.076)">
            <path d="M214.402,99.698L214.402,114.275C214.402,115.299 213.571,116.13 212.547,116.13L197.97,116.13C196.946,116.13 196.115,115.299 196.115,114.275L196.115,99.698C196.115,98.674 196.946,97.843 197.97,97.843L212.547,97.843C213.571,97.843 214.402,98.674 214.402,99.698Z" style="fill:rgb(2,164,236);"/>
        </g>
        <g transform="matrix(1.00636,0,0,1.00636,651.491,229.48)">
            <path d="M214.402,99.698L214.402,114.275C214.402,115.299 213.571,116.13 212.547,116.13L197.97,116.13C196.946,116.13 196.115,115.299 196.115,114.275L196.115,99.698C196.115,98.674 196.946,97.843 197.97,97.843L212.547,97.843C213.571,97.843 214.402,98.674 214.402,99.698Z" style="fill:rgb(97,171,221);"/>
        </g>
        <g transform="matrix(1.00636,0,0,1.00636,672.895,250.884)">
            <path d="M214.402,99.698L214.402,114.275C214.402,115.299 213.571,116.13 212.547,116.13L197.97,116.13C196.946,116.13 196.115,115.299 196.115,114.275L196.115,99.698C196.115,98.674 196.946,97.843 197.97,97.843L212.547,97.843C213.571,97.843 214.402,98.674 214.402,99.698Z" style="fill:rgb(46,166,226);"/>
        </g>
        <g transform="matrix(1.00636,0,0,1.00636,672.895,272.287)">
            <path d="M214.402,99.698L214.402,114.275C214.402,115.299 213.571,116.13 212.547,116.13L197.97,116.13C196.946,116.13 196.115,115.299 196.115,114.275L196.115,99.698C196.115,98.674 196.946,97.843 197.97,97.843L212.547,97.843C213.571,97.843 214.402,98.674 214.402,99.698Z" style="fill:rgb(189,228,249);"/>
        </g>
        <g transform="matrix(1.00636,0,0,1.00636,672.895,165.268)">
            <path d="M214.402,99.698L214.402,114.275C214.402,115.299 213.571,116.13 212.547,116.13L197.97,116.13C196.946,116.13 196.115,115.299 196.115,114.275L196.115,99.698C196.115,98.674 196.946,97.843 197.97,97.843L212.547,97.843C213.571,97.843 214.402,98.674 214.402,99.698Z" style="fill:rgb(187,227,250);"/>
        </g>
        <g transform="matrix(1.00636,0,0,1.00636,672.895,186.672)">
            <path d="M214.402,99.698L214.402,114.275C214.402,115.299 213.571,116.13 212.547,116.13L197.97,116.13C196.946,116.13 196.115,115.299 196.115,114.275L196.115,99.698C196.115,98.674 196.946,97.843 197.97,97.843L212.547,97.843C213.571,97.843 214.402,98.674 214.402,99.698Z" style="fill:rgb(29,182,233);"/>
        </g>
        <g transform="matrix(1.00636,0,0,1.00636,672.895,208.076)">
            <path d="M214.402,99.698L214.402,114.275C214.402,115.299 213.571,116.13 212.547,116.13L197.97,116.13C196.946,116.13 196.115,115.299 196.115,114.275L196.115,99.698C196.115,98.674 196.946,97.843 197.97,97.843L212.547,97.843C213.571,97.843 214.402,98.674 214.402,99.698Z" style="fill:rgb(14,112,183);"/>
        </g>
        <g transform="matrix(1.00636,0,0,1.00636,672.895,229.48)">
            <path d="M214.402,99.698L214.402,114.275C214.402,115.299 213.571,116.13 212.547,116.13L197.97,116.13C196.946,116.13 196.115,115.299 196.115,114.275L196.115,99.698C196.115,98.674 196.946,97.843 197.97,97.843L212.547,97.843C213.571,97.843 214.402,98.674 214.402,99.698Z" style="fill:rgb(89,188,235);"/>
        </g>
        <g transform="matrix(1.00636,0,0,1.00636,694.299,250.884)">
            <path d="M214.402,99.698L214.402,114.275C214.402,115.299 213.571,116.13 212.547,116.13L197.97,116.13C196.946,116.13 196.115,115.299 196.115,114.275L196.115,99.698C196.115,98.674 196.946,97.843 197.97,97.843L212.547,97.843C213.571,97.843 214.402,98.674 214.402,99.698Z" style="fill:rgb(0,161,236);"/>
        </g>
        <g transform="matrix(1.00636,0,0,1.00636,694.299,272.287)">
            <path d="M214.402,99.698L214.402,114.275C214.402,115.299 213.571,116.13 212.547,116.13L197.97,116.13C196.946,116.13 196.115,115.299 196.115,114.275L196.115,99.698C196.115,98.674 196.946,97.843 197.97,97.843L212.547,97.843C213.571,97.843 214.402,98.674 214.402,99.698Z" style="fill:rgb(213,234,255);"/>
        </g>
        <g transform="matrix(1.00636,0,0,1.00636,694.299,165.268)">
            <path d="M214.402,99.698L214.402,114.275C214.402,115.299 213.571,116.13 212.547,116.13L197.97,116.13C196.946,116.13 196.115,115.299 196.115,114.275L196.115,99.698C196.115,98.674 196.946,97.843 197.97,97.843L212.547,97.843C213.571,97.843 214.402,98.674 214.402,99.698Z" style="fill:rgb(11,114,191);"/>
        </g>
        <g transform="matrix(1.00636,0,0,1.00636,694.299,186.672)">
            <path d="M214.402,99.698L214.402,114.275C214.402,115.299 213.571,116.13 212.547,116.13L197.97,116.13C196.946,116.13 196.115,115.299 196.115,114.275L196.115,99.698C196.115,98.674 196.946,97.843 197.97,97.843L212.547,97.843C213.571,97.843 214.402,98.674 214.402,99.698Z" style="fill:rgb(134,209,247);"/>
        </g>
        <g transform="matrix(1.00636,0,0,1.00636,694.299,208.076)">
            <path d="M214.402,99.698L214.402,114.275C214.402,115.299 213.571,116.13 212.547,116.13L197.97,116.13C196.946,116.13 196.115,115.299 196.115,114.275L196.115,99.698C196.115,98.674 196.946,97.843 197.97,97.843L212.547,97.843C213.571,97.843 214.402,98.674 214.402,99.698Z" style="fill:rgb(4,172,232);"/>
        </g>
        <g transform="matrix(1.00636,0,0,1.00636,694.299,229.48)">
            <path d="M214.402,99.698L214.402,114.275C214.402,115.299 213.571,116.13 212.547,116.13L197.97,116.13C196.946,116.13 196.115,115.299 196.115,114.275L196.115,99.698C196.115,98.674 196.946,97.843 197.97,97.843L212.547,97.843C213.571,97.843 214.402,98.674 214.402,99.698Z" style="fill:rgb(1,118,195);"/>
        </g>
        <g transform="matrix(1.00636,0,0,1.00636,715.703,250.884)">
            <path d="M214.402,99.698L214.402,114.275C214.402,115.299 213.571,116.13 212.547,116.13L197.97,116.13C196.946,116.13 196.115,115.299 196.115,114.275L196.115,99.698C196.115,98.674 196.946,97.843 197.97,97.843L212.547,97.843C213.571,97.843 214.402,98.674 214.402,99.698Z" style="fill:rgb(123,206,242);"/>
        </g>
        <g transform="matrix(1.00636,0,0,1.00636,715.703,272.287)">
            <path d="M214.402,99.698L214.402,114.275C214.402,115.299 213.571,116.13 212.547,116.13L197.97,116.13C196.946,116.13 196.115,115.299 196.115,114.275L196.115,99.698C196.115,98.674 196.946,97.843 197.97,97.843L212.547,97.843C213.571,97.843 214.402,98.674 214.402,99.698Z" style="fill:rgb(13,112,186);"/>
        </g>
        <g transform="matrix(1.00636,0,0,1.00636,715.703,165.268)">
            <path d="M214.402,99.698L214.402,114.275C214.402,115.299 213.571,116.13 212.547,116.13L197.97,116.13C196.946,116.13 196.115,115.299 196.115,114.275L196.115,99.698C196.115,98.674 196.946,97.843 197.97,97.843L212.547,97.843C213.571,97.843 214.402,98.674 214.402,99.698Z" style="fill:rgb(45,174,232);"/>
        </g>
        <g transform="matrix(1.00636,0,0,1.00636,715.703,186.672)">
            <path d="M214.402,99.698L214.402,114.275C214.402,115.299 213.571,116.13 212.547,116.13L197.97,116.13C196.946,116.13 196.115,115.299 196.115,114.275L196.115,99.698C196.115,98.674 196.946,97.843 197.97,97.843L212.547,97.843C213.571,97.843 214.402,98.674 214.402,99.698Z" style="fill:rgb(0,105,186);"/>
        </g>
        <g transform="matrix(1.00636,0,0,1.00636,715.703,208.076)">
            <path d="M214.402,99.698L214.402,114.275C214.402,115.299 213.571,116.13 212.547,116.13L197.97,116.13C196.946,116.13 196.115,115.299 196.115,114.275L196.115,99.698C196.115,98.674 196.946,97.843 197.97,97.843L212.547,97.843C213.571,97.843 214.402,98.674 214.402,99.698Z" style="fill:rgb(36,179,240);"/>
        </g>
        <g transform="matrix(1.00636,0,0,1.00636,715.703,229.48)">
            <path d="M214.402,99.698L214.402,114.275C214.402,115.299 213.571,116.13 212.547,116.13L197.97,116.13C196.946,116.13 196.115,115.299 196.115,114.275L196.115,99.698C196.115,98.674 196.946,97.843 197.97,97.843L212.547,97.843C213.571,97.843 214.402,98.674 214.402,99.698Z" style="fill:rgb(40,170,226);"/>
        </g>
        <g transform="matrix(1.00636,0,0,1.00636,737.107,250.884)">
            <path d="M214.402,99.698L214.402,114.275C214.402,115.299 213.571,116.13 212.547,116.13L197.97,116.13C196.946,116.13 196.115,115.299 196.115,114.275L196.115,99.698C196.115,98.674 196.946,97.843 197.97,97.843L212.547,97.843C213.571,97.843 214.402,98.674 214.402,99.698Z" style="fill:rgb(189,226,252);"/>
        </g>
        <g transform="matrix(1.00636,0,0,1.00636,737.107,272.287)">
            <path d="M214.402,99.698L214.402,114.275C214.402,115.299 213.571,116.13 212.547,116.13L197.97,116.13C196.946,116.13 196.115,115.299 196.115,114.275L196.115,99.698C196.115,98.674 196.946,97.843 197.97,97.843L212.547,97.843C213.571,97.843 214.402,98.674 214.402,99.698Z" style="fill:rgb(106,202,243);"/>
        </g>
        <g transform="matrix(1.00636,0,0,1.00636,737.107,165.268)">
            <path d="M214.402,99.698L214.402,114.275C214.402,115.299 213.571,116.13 212.547,116.13L197.97,116.13C196.946,116.13 196.115,115.299 196.115,114.275L196.115,99.698C196.115,98.674 196.946,97.843 197.97,97.843L212.547,97.843C213.571,97.843 214.402,98.674 214.402,99.698Z" style="fill:rgb(105,170,228);"/>
        </g>
        <g transform="matrix(1.00636,0,0,1.00636,737.107,186.672)">
            <path d="M214.402,99.698L214.402,114.275C214.402,115.299 213.571,116.13 212.547,116.13L197.97,116.13C196.946,116.13 196.115,115.299 196.115,114.275L196.115,99.698C196.115,98.674 196.946,97.843 197.97,97.843L212.547,97.843C213.571,97.843 214.402,98.674 214.402,99.698Z" style="fill:rgb(102,202,246);"/>
        </g>
        <g transform="matrix(1.00636,0,0,1.00636,737.107,208.076)">
            <path d="M214.402,99.698L214.402,114.275C214.402,115.299 213.571,116.13 212.547,116.13L197.97,116.13C196.946,116.13 196.115,115.299 196.115,114.275L196.115,99.698C196.115,98.674 196.946,97.843 197.97,97.843L212.547,97.843C213.571,97.843 214.402,98.674 214.402,99.698Z" style="fill:rgb(90,190,247);"/>
        </g>
        <g transform="matrix(1.00636,0,0,1.00636,737.107,229.48)">
            <path d="M214.402,99.698L214.402,114.275C214.402,115.299 213.571,116.13 212.547,116.13L197.97,116.13C196.946,116.13 196.115,115.299 196.115,114.275L196.115,99.698C196.115,98.674 196.946,97.843 197.97,97.843L212.547,97.843C213.571,97.843 214.402,98.674 214.402,99.698Z" style="fill:rgb(182,214,240);"/>
        </g>
        <g transform="matrix(1.00636,0,0,1.00636,758.511,250.884)">
            <path d="M214.402,99.698L214.402,114.275C214.402,115.299 213.571,116.13 212.547,116.13L197.97,116.13C196.946,116.13 196.115,115.299 196.115,114.275L196.115,99.698C196.115,98.674 196.946,97.843 197.97,97.843L212.547,97.843C213.571,97.843 214.402,98.674 214.402,99.698Z" style="fill:rgb(88,192,239);"/>
        </g>
        <g transform="matrix(1.00636,0,0,1.00636,758.511,272.287)">
            <path d="M214.402,99.698L214.402,114.275C214.402,115.299 213.571,116.13 212.547,116.13L197.97,116.13C196.946,116.13 196.115,115.299 196.115,114.275L196.115,99.698C196.115,98.674 196.946,97.843 197.97,97.843L212.547,97.843C213.571,97.843 214.402,98.674 214.402,99.698Z" style="fill:rgb(103,172,224);"/>
        </g>
        <g transform="matrix(1.00636,0,0,1.00636,758.511,165.268)">
            <path d="M214.402,99.698L214.402,114.275C214.402,115.299 213.571,116.13 212.547,116.13L197.97,116.13C196.946,116.13 196.115,115.299 196.115,114.275L196.115,99.698C196.115,98.674 196.946,97.843 197.97,97.843L212.547,97.843C213.571,97.843 214.402,98.674 214.402,99.698Z" style="fill:rgb(3,171,233);"/>
        </g>
        <g transform="matrix(1.00636,0,0,1.00636,758.511,186.672)">
            <path d="M214.402,99.698L214.402,114.275C214.402,115.299 213.571,116.13 212.547,116.13L197.97,116.13C196.946,116.13 196.115,115.299 196.115,114.275L196.115,99.698C196.115,98.674 196.946,97.843 197.97,97.843L212.547,97.843C213.571,97.843 214.402,98.674 214.402,99.698Z" style="fill:rgb(3,157,233);"/>
        </g>
        <g transform="matrix(1.00636,0,0,1.00636,758.511,208.076)">
            <path d="M214.402,99.698L214.402,114.275C214.402,115.299 213.571,116.13 212.547,116.13L197.97,116.13C196.946,116.13 196.115,115.299 196.115,114.275L196.115,99.698C196.115,98.674 196.946,97.843 197.97,97.843L212.547,97.843C213.571,97.843 214.402,98.674 214.402,99.698Z" style="fill:rgb(229,243,249);"/>
        </g>
        <g transform="matrix(1.00636,0,0,1.00636,758.511,229.48)">
            <path d="M214.402,99.698L214.402,114.275C214.402,115.299 213.571,116.13 212.547,116.13L197.97,116.13C196.946,116.13 196.115,115.299 196.115,114.275L196.115,99.698C196.115,98.674 196.946,97.843 197.97,97.843L212.547,97.843C213.571,97.843 214.402,98.674 214.402,99.698Z" style="fill:rgb(3,114,200);"/>
        </g>
        <g transform="matrix(1.00636,0,0,1.00636,779.914,250.884)">
            <path d="M214.402,99.698L214.402,114.275C214.402,115.299 213.571,116.13 212.547,116.13L197.97,116.13C196.946,116.13 196.115,115.299 196.115,114.275L196.115,99.698C196.115,98.674 196.946,97.843 197.97,97.843L212.547,97.843C213.571,97.843 214.402,98.674 214.402,99.698Z" style="fill:rgb(37,169,225);"/>
        </g>
        <g transform="matrix(1.00636,0,0,1.00636,779.914,272.287)">
            <path d="M214.402,99.698L214.402,114.275C214.402,115.299 213.571,116.13 212.547,116.13L197.97,116.13C196.946,116.13 196.115,115.299 196.115,114.275L196.115,99.698C196.115,98.674 196.946,97.843 197.97,97.843L212.547,97.843C213.571,97.843 214.402,98.674 214.402,99.698Z" style="fill:rgb(121,208,245);"/>
        </g>
        <g transform="matrix(1.00636,0,0,1.00636,779.914,165.268)">
            <path d="M214.402,99.698L214.402,114.275C214.402,115.299 213.571,116.13 212.547,116.13L197.97,116.13C196.946,116.13 196.115,115.299 196.115,114.275L196.115,99.698C196.115,98.674 196.946,97.843 197.97,97.843L212.547,97.843C213.571,97.843 214.402,98.674 214.402,99.698Z" style="fill:rgb(121,206,248);"/>
        </g>
        <g transform="matrix(1.00636,0,0,1.00636,779.914,186.672)">
            <path d="M214.402,99.698L214.402,114.275C214.402,115.299 213.571,116.13 212.547,116.13L197.97,116.13C196.946,116.13 196.115,115.299 196.115,114.275L196.115,99.698C196.115,98.674 196.946,97.843 197.97,97.843L212.547,97.843C213.571,97.843 214.402,98.674 214.402,99.698Z" style="fill:rgb(10,111,186);"/>
        </g>
        <g transform="matrix(1.00636,0,0,1.00636,779.914,208.076)">
            <path d="M214.402,99.698L214.402,114.275C214.402,115.299 213.571,116.13 212.547,116.13L197.97,116.13C196.946,116.13 196.115,115.299 196.115,114.275L196.115,99.698C196.115,98.674 196.946,97.843 197.97,97.843L212.547,97.843C213.571,97.843 214.402,98.674 214.402,99.698Z" style="fill:rgb(191,230,254);"/>
        </g>
        <g transform="matrix(1.00636,0,0,1.00636,779.914,229.48)">
            <path d="M214.402,99.698L214.402,114.275C214.402,115.299 213.571,116.13 212.547,116.13L197.97,116.13C196.946,116.13 196.115,115.299 196.115,114.275L196.115,99.698C196.115,98.674 196.946,97.843 197.97,97.843L212.547,97.843C213.571,97.843 214.402,98.674 214.402,99.698Z" style="fill:rgb(90,189,240);"/>
        </g>
        <g transform="matrix(1.00636,0,0,1.00636,801.318,250.884)">
            <path d="M214.402,99.698L214.402,114.275C214.402,115.299 213.571,116.13 212.547,116.13L197.97,116.13C196.946,116.13 196.115,115.299 196.115,114.275L196.115,99.698C196.115,98.674 196.946,97.843 197.97,97.843L212.547,97.843C213.571,97.843 214.402,98.674 214.402,99.698Z" style="fill:rgb(2,106,184);"/>
        </g>
        <g transform="matrix(1.00636,0,0,1.00636,801.318,272.287)">
            <path d="M214.402,99.698L214.402,114.275C214.402,115.299 213.571,116.13 212.547,116.13L197.97,116.13C196.946,116.13 196.115,115.299 196.115,114.275L196.115,99.698C196.115,98.674 196.946,97.843 197.97,97.843L212.547,97.843C213.571,97.843 214.402,98.674 214.402,99.698Z" style="fill:rgb(188,230,252);"/>
        </g>
        <g transform="matrix(1.00636,0,0,1.00636,801.318,165.268)">
            <path d="M214.402,99.698L214.402,114.275C214.402,115.299 213.571,116.13 212.547,116.13L197.97,116.13C196.946,116.13 196.115,115.299 196.115,114.275L196.115,99.698C196.115,98.674 196.946,97.843 197.97,97.843L212.547,97.843C213.571,97.843 214.402,98.674 214.402,99.698Z" style="fill:rgb(187,227,252);"/>
        </g>
        <g transform="matrix(1.00636,0,0,1.00636,801.318,186.672)">
            <path d="M214.402,99.698L214.402,114.275C214.402,115.299 213.571,116.13 212.547,116.13L197.97,116.13C196.946,116.13 196.115,115.299 196.115,114.275L196.115,99.698C196.115,98.674 196.946,97.843 197.97,97.843L212.547,97.843C213.571,97.843 214.402,98.674 214.402,99.698Z" style="fill:rgb(213,236,251);"/>
        </g>
        <g transform="matrix(1.00636,0,0,1.00636,801.318,208.076)">
            <path d="M214.402,99.698L214.402,114.275C214.402,115.299 213.571,116.13 212.547,116.13L197.97,116.13C196.946,116.13 196.115,115.299 196.115,114.275L196.115,99.698C196.115,98.674 196.946,97.843 197.97,97.843L212.547,97.843C213.571,97.843 214.402,98.674 214.402,99.698Z" style="fill:rgb(33,184,235);"/>
        </g>
        <g transform="matrix(1.00636,0,0,1.00636,801.318,229.48)">
            <path d="M214.402,99.698L214.402,114.275C214.402,115.299 213.571,116.13 212.547,116.13L197.97,116.13C196.946,116.13 196.115,115.299 196.115,114.275L196.115,99.698C196.115,98.674 196.946,97.843 197.97,97.843L212.547,97.843C213.571,97.843 214.402,98.674 214.402,99.698Z" style="fill:rgb(39,169,225);"/>
        </g>
        <g transform="matrix(1.00636,0,0,1.00636,822.722,250.884)">
            <path d="M214.402,99.698L214.402,114.275C214.402,115.299 213.571,116.13 212.547,116.13L197.97,116.13C196.946,116.13 196.115,115.299 196.115,114.275L196.115,99.698C196.115,98.674 196.946,97.843 197.97,97.843L212.547,97.843C213.571,97.843 214.402,98.674 214.402,99.698Z" style="fill:rgb(15,113,187);"/>
        </g>
        <g transform="matrix(1.00636,0,0,1.00636,822.722,272.287)">
            <path d="M214.402,99.698L214.402,114.275C214.402,115.299 213.571,116.13 212.547,116.13L197.97,116.13C196.946,116.13 196.115,115.299 196.115,114.275L196.115,99.698C196.115,98.674 196.946,97.843 197.97,97.843L212.547,97.843C213.571,97.843 214.402,98.674 214.402,99.698Z" style="fill:rgb(1,160,234);"/>
        </g>
        <g transform="matrix(1.00636,0,0,1.00636,822.722,165.268)">
            <path d="M214.402,99.698L214.402,114.275C214.402,115.299 213.571,116.13 212.547,116.13L197.97,116.13C196.946,116.13 196.115,115.299 196.115,114.275L196.115,99.698C196.115,98.674 196.946,97.843 197.97,97.843L212.547,97.843C213.571,97.843 214.402,98.674 214.402,99.698Z" style="fill:rgb(0,119,197);"/>
        </g>
        <g transform="matrix(1.00636,0,0,1.00636,822.722,186.672)">
            <path d="M214.402,99.698L214.402,114.275C214.402,115.299 213.571,116.13 212.547,116.13L197.97,116.13C196.946,116.13 196.115,115.299 196.115,114.275L196.115,99.698C196.115,98.674 196.946,97.843 197.97,97.843L212.547,97.843C213.571,97.843 214.402,98.674 214.402,99.698Z" style="fill:rgb(33,169,228);"/>
        </g>
        <g transform="matrix(1.00636,0,0,1.00636,822.722,208.076)">
            <path d="M214.402,99.698L214.402,114.275C214.402,115.299 213.571,116.13 212.547,116.13L197.97,116.13C196.946,116.13 196.115,115.299 196.115,114.275L196.115,99.698C196.115,98.674 196.946,97.843 197.97,97.843L212.547,97.843C213.571,97.843 214.402,98.674 214.402,99.698Z" style="fill:rgb(3,104,184);"/>
        </g>
        <g transform="matrix(1.00636,0,0,1.00636,822.722,229.48)">
            <path d="M214.402,99.698L214.402,114.275C214.402,115.299 213.571,116.13 212.547,116.13L197.97,116.13C196.946,116.13 196.115,115.299 196.115,114.275L196.115,99.698C196.115,98.674 196.946,97.843 197.97,97.843L212.547,97.843C213.571,97.843 214.402,98.674 214.402,99.698Z" style="fill:rgb(87,191,240);"/>
        </g>
        <g transform="matrix(1.00636,0,0,1.00636,844.126,250.884)">
            <path d="M214.402,99.698L214.402,114.275C214.402,115.299 213.571,116.13 212.547,116.13L197.97,116.13C196.946,116.13 196.115,115.299 196.115,114.275L196.115,99.698C196.115,98.674 196.946,97.843 197.97,97.843L212.547,97.843C213.571,97.843 214.402,98.674 214.402,99.698Z" style="fill:rgb(188,230,252);"/>
        </g>
        <g transform="matrix(1.00636,0,0,1.00636,844.126,272.287)">
            <path d="M214.402,99.698L214.402,114.275C214.402,115.299 213.571,116.13 212.547,116.13L197.97,116.13C196.946,116.13 196.115,115.299 196.115,114.275L196.115,99.698C196.115,98.674 196.946,97.843 197.97,97.843L212.547,97.843C213.571,97.843 214.402,98.674 214.402,99.698Z" style="fill:rgb(2,172,235);"/>
        </g>
        <g transform="matrix(1.00636,0,0,1.00636,844.126,165.268)">
            <path d="M214.402,99.698L214.402,114.275C214.402,115.299 213.571,116.13 212.547,116.13L197.97,116.13C196.946,116.13 196.115,115.299 196.115,114.275L196.115,99.698C196.115,98.674 196.946,97.843 197.97,97.843L212.547,97.843C213.571,97.843 214.402,98.674 214.402,99.698Z" style="fill:rgb(102,200,244);"/>
        </g>
        <g transform="matrix(1.00636,0,0,1.00636,844.126,186.672)">
            <path d="M214.402,99.698L214.402,114.275C214.402,115.299 213.571,116.13 212.547,116.13L197.97,116.13C196.946,116.13 196.115,115.299 196.115,114.275L196.115,99.698C196.115,98.674 196.946,97.843 197.97,97.843L212.547,97.843C213.571,97.843 214.402,98.674 214.402,99.698Z" style="fill:rgb(132,206,238);"/>
        </g>
        <g transform="matrix(1.00636,0,0,1.00636,844.126,208.076)">
            <path d="M214.402,99.698L214.402,114.275C214.402,115.299 213.571,116.13 212.547,116.13L197.97,116.13C196.946,116.13 196.115,115.299 196.115,114.275L196.115,99.698C196.115,98.674 196.946,97.843 197.97,97.843L212.547,97.843C213.571,97.843 214.402,98.674 214.402,99.698Z" style="fill:rgb(101,168,229);"/>
        </g>
        <g transform="matrix(1.00636,0,0,1.00636,844.126,229.48)">
            <path d="M214.402,99.698L214.402,114.275C214.402,115.299 213.571,116.13 212.547,116.13L197.97,116.13C196.946,116.13 196.115,115.299 196.115,114.275L196.115,99.698C196.115,98.674 196.946,97.843 197.97,97.843L212.547,97.843C213.571,97.843 214.402,98.674 214.402,99.698Z" style="fill:rgb(125,206,246);"/>
        </g>
        <g transform="matrix(1.00636,0,0,1.00636,865.53,250.884)">
            <path d="M214.402,99.698L214.402,114.275C214.402,115.299 213.571,116.13 212.547,116.13L197.97,116.13C196.946,116.13 196.115,115.299 196.115,114.275L196.115,99.698C196.115,98.674 196.946,97.843 197.97,97.843L212.547,97.843C213.571,97.843 214.402,98.674 214.402,99.698Z" style="fill:rgb(1,118,199);"/>
        </g>
        <g transform="matrix(1.00636,0,0,1.00636,865.53,272.287)">
            <path d="M214.402,99.698L214.402,114.275C214.402,115.299 213.571,116.13 212.547,116.13L197.97,116.13C196.946,116.13 196.115,115.299 196.115,114.275L196.115,99.698C196.115,98.674 196.946,97.843 197.97,97.843L212.547,97.843C213.571,97.843 214.402,98.674 214.402,99.698Z" style="fill:rgb(229,246,255);"/>
        </g>
        <g transform="matrix(1.00636,0,0,1.00636,865.53,165.268)">
            <path d="M214.402,99.698L214.402,114.275C214.402,115.299 213.571,116.13 212.547,116.13L197.97,116.13C196.946,116.13 196.115,115.299 196.115,114.275L196.115,99.698C196.115,98.674 196.946,97.843 197.97,97.843L212.547,97.843C213.571,97.843 214.402,98.674 214.402,99.698Z" style="fill:rgb(13,113,184);"/>
        </g>
        <g transform="matrix(1.00636,0,0,1.00636,865.53,186.672)">
            <path d="M214.402,99.698L214.402,114.275C214.402,115.299 213.571,116.13 212.547,116.13L197.97,116.13C196.946,116.13 196.115,115.299 196.115,114.275L196.115,99.698C196.115,98.674 196.946,97.843 197.97,97.843L212.547,97.843C213.571,97.843 214.402,98.674 214.402,99.698Z" style="fill:rgb(84,191,237);"/>
        </g>
        <g transform="matrix(1.00636,0,0,1.00636,865.53,208.076)">
            <path d="M214.402,99.698L214.402,114.275C214.402,115.299 213.571,116.13 212.547,116.13L197.97,116.13C196.946,116.13 196.115,115.299 196.115,114.275L196.115,99.698C196.115,98.674 196.946,97.843 197.97,97.843L212.547,97.843C213.571,97.843 214.402,98.674 214.402,99.698Z" style="fill:rgb(2,170,232);"/>
        </g>
        <g transform="matrix(1.00636,0,0,1.00636,865.53,229.48)">
            <path d="M214.402,99.698L214.402,114.275C214.402,115.299 213.571,116.13 212.547,116.13L197.97,116.13C196.946,116.13 196.115,115.299 196.115,114.275L196.115,99.698C196.115,98.674 196.946,97.843 197.97,97.843L212.547,97.843C213.571,97.843 214.402,98.674 214.402,99.698Z" style="fill:rgb(12,113,186);"/>
        </g>
    </g>
</svg>
